# xmcd
#
# Track frame offsets:
#	150
#	19588
#	30781
#	48382
#	71727
#	83995
#	110447
#	126995
#
# Disc length: 1926 seconds
#
# Revision: 0
# Processed by: cddbd v1.5.2PL0 Copyright (c) Steve Scherf et al.
# Submitted via: EZCDAudioConverter 7.0.6.1
#
DISCID=60078408
DTITLE=Carm Mascarenhas - Someday Soon
DYEAR=1900
DGENRE=
TTITLE0=In The Sun
TTITLE1=Green Eyes (Smile)
TTITLE2=Beyond My Home
TTITLE3=Stormy Day
TTITLE4=Brand New Life
TTITLE5=Fields Of Green
TTITLE6=A Time In Life
TTITLE7=(Happy Days) Someday Soon
EXTD=
EXTT0=
EXTT1=
EXTT2=
EXTT3=
EXTT4=
EXTT5=
EXTT6=
EXTT7=
PLAYORDER=
